<?xml version="1.0" standalone="no"?>
<!DOCTYPE svg PUBLIC "-//W3C//DTD SVG 20010904//EN"
 "http://www.w3.org/TR/2001/REC-SVG-20010904/DTD/svg10.dtd">
<svg version="1.0" xmlns="http://www.w3.org/2000/svg"
 width="128.000000pt" height="128.000000pt" viewBox="0 0 128.000000 128.000000"
 preserveAspectRatio="xMidYMid meet">
<metadata>
Created by potrace 1.14, written by Peter Selinger 2001-2017
</metadata>
<g transform="translate(0.000000,128.000000) scale(0.100000,-0.100000)"
fill="#000000" stroke="none">
<path d="M535 1261 c-275 -60 -463 -281 -470 -556 -4 -166 52 -300 182 -438
28 -31 53 -53 56 -51 2 2 10 -2 17 -11 7 -8 21 -15 31 -15 10 0 23 -8 28 -18
6 -9 11 -13 11 -8 0 5 7 2 17 -5 9 -8 19 -13 22 -12 3 0 5 -2 4 -6 -1 -4 13
-8 30 -9 40 -2 59 -6 73 -14 5 -4 18 -6 28 -4 10 1 38 -1 62 -4 24 -4 44 -4
44 -1 0 4 17 6 38 5 20 0 40 4 45 10 5 7 13 4 24 -9 11 -14 14 -15 10 -4 -4
12 5 20 36 29 23 8 59 22 81 33 27 13 41 16 49 8 6 -6 16 -11 21 -11 6 0 3 5
-6 11 -21 12 -24 29 -5 29 17 0 90 72 137 134 80 106 118 229 115 368 -3 97
-12 133 -66 243 -62 130 -179 233 -319 281 -80 28 -223 40 -295 25z"/>
<path d="M236 202 c-3 -5 1 -9 9 -9 8 0 12 4 9 9 -3 4 -7 8 -9 8 -2 0 -6 -4
-9 -8z"/>
<path d="M284 194 c-18 -14 -18 -15 3 -4 18 8 24 7 32 -8 7 -13 6 -23 -2 -32
-10 -12 -9 -12 5 -1 13 10 15 18 8 31 -15 28 -25 31 -46 14z"/>
<path d="M976 201 c-3 -5 1 -12 10 -15 22 -8 25 -4 9 11 -8 7 -16 9 -19 4z"/>
<path d="M358 158 c3 -14 1 -19 -6 -14 -6 3 -13 3 -16 -2 -2 -4 5 -8 18 -8 18
0 22 4 18 23 -2 13 -8 23 -12 23 -5 0 -6 -10 -2 -22z"/>
<path d="M905 159 c-4 -6 -5 -12 -2 -15 2 -3 7 2 10 11 7 17 1 20 -8 4z"/>
<path d="M931 153 c0 -12 2 -13 6 -5 4 10 8 10 21 0 15 -12 16 -11 3 5 -7 9
-17 17 -22 17 -5 0 -9 -8 -8 -17z"/>
<path d="M390 150 c0 -5 5 -10 11 -10 5 0 7 5 4 10 -3 6 -8 10 -11 10 -2 0 -4
-4 -4 -10z"/>
<path d="M873 128 c-2 -18 0 -20 7 -8 12 18 13 30 2 30 -4 0 -9 -10 -9 -22z"/>
<path d="M838 133 c7 -3 16 -2 19 1 4 3 -2 6 -13 5 -11 0 -14 -3 -6 -6z"/>
<path d="M390 122 c0 -4 9 -8 19 -8 11 0 17 4 15 8 -3 4 -12 8 -20 8 -8 0 -14
-4 -14 -8z"/>
<path d="M455 120 c-3 -5 -1 -10 4 -10 6 0 11 5 11 10 0 6 -2 10 -4 10 -3 0
-8 -4 -11 -10z"/>
<path d="M811 114 c0 -11 3 -14 6 -6 3 7 2 16 -1 19 -3 4 -6 -2 -5 -13z"/>
<path d="M523 99 c9 -6 14 -15 11 -21 -4 -7 -2 -8 5 -4 14 9 -3 36 -23 36 -6
0 -3 -5 7 -11z"/>
<path d="M755 101 c-3 -5 -2 -12 3 -15 5 -3 9 1 9 9 0 17 -3 19 -12 6z"/>
<path d="M570 90 c-8 -5 -12 -12 -9 -15 4 -3 12 1 19 10 14 17 11 19 -10 5z"/>
<path d="M617 89 c7 -7 15 -10 18 -7 3 3 -2 9 -12 12 -14 6 -15 5 -6 -5z"/>
</g>
</svg>
