<?xml version="1.0" standalone="no"?>
<!DOCTYPE svg PUBLIC "-//W3C//DTD SVG 20010904//EN"
 "http://www.w3.org/TR/2001/REC-SVG-20010904/DTD/svg10.dtd">
<svg version="1.0" xmlns="http://www.w3.org/2000/svg"
 width="451.000000pt" height="451.000000pt" viewBox="0 0 451.000000 451.000000"
 preserveAspectRatio="xMidYMid meet">
<metadata>
Created by potrace 1.14, written by Peter Selinger 2001-2017
</metadata>
<g transform="translate(0.000000,451.000000) scale(0.100000,-0.100000)"
fill="#000000" stroke="none">
<path d="M775 4492 c-110 -39 -187 -114 -221 -217 -15 -43 -19 -84 -23 -253
-1 -20 -5 -22 -58 -21 -98 1 -136 -17 -175 -80 -20 -32 -23 -50 -25 -166 -1
-149 8 -179 69 -228 34 -27 45 -30 123 -33 48 -1 88 -4 89 -6 1 -1 13 -21 26
-43 41 -67 81 -104 149 -138 l66 -32 1472 -3 c1469 -2 1473 -2 1534 18 140 48
238 187 234 333 -1 43 1 47 19 41 34 -10 66 -45 75 -83 5 -20 8 -132 7 -248
-2 -197 -3 -215 -22 -240 -42 -57 -14 -55 -827 -56 -418 0 -767 -4 -787 -9
-89 -23 -169 -84 -215 -162 -46 -80 -51 -122 -50 -412 l1 -272 -95 -4 c-72 -3
-106 -9 -136 -25 -58 -30 -101 -77 -122 -131 -17 -44 -18 -102 -18 -942 l0
-895 23 -42 c29 -56 66 -90 128 -119 49 -23 56 -24 290 -21 223 2 242 3 279
24 57 30 103 82 124 139 17 46 18 102 17 934 -2 979 2 916 -67 995 -51 58
-112 82 -216 84 -48 1 -89 4 -92 6 -3 2 -6 127 -5 278 1 202 5 285 14 309 21
54 57 96 108 125 l47 28 773 2 773 1 53 26 c53 26 104 83 122 136 14 45 13
479 -3 532 -18 64 -84 130 -146 147 -26 8 -47 16 -48 20 0 3 -2 105 -4 226 -2
170 -6 229 -18 262 -35 92 -101 163 -195 206 l-47 22 -1475 2 c-1386 2 -1478
1 -1525 -15z"/>
</g>
</svg>
